<svg width="34" height="34" viewBox="0 0 34 34" fill="none" xmlns="http://www.w3.org/2000/svg">
<path d="M28.6879 8.146H11.2983L13.6164 19.4796H26.5947C26.8356 19.4796 27.0692 19.3977 27.2575 19.2475C27.4457 19.0972 27.5773 18.8874 27.6307 18.6526L29.7234 9.44405C29.7858 9.1693 29.7366 8.881 29.5865 8.64256C29.4364 8.40411 29.1977 8.23506 28.923 8.17256C28.8459 8.15487 28.767 8.14596 28.6879 8.146Z" fill="white"/>
<path d="M13.9066 20.8962H25.79C25.9496 20.8962 26.107 20.9322 26.2508 21.0014C26.3945 21.0706 26.5208 21.1712 26.6204 21.2959C26.7199 21.4206 26.79 21.5661 26.8256 21.7216C26.8612 21.8771 26.8614 22.0387 26.826 22.1942L26.5816 23.2692C27.0557 23.4988 27.4444 23.8734 27.6912 24.3388C27.938 24.8042 28.0302 25.3361 27.9544 25.8574C27.8786 26.3787 27.6386 26.8623 27.2694 27.238C26.9003 27.6138 26.421 27.8622 25.9011 27.9472C25.3812 28.0322 24.8478 27.9494 24.3781 27.7108C23.9084 27.4723 23.527 27.0903 23.2891 26.6203C23.0511 26.1503 22.9691 25.6167 23.0548 25.097C23.1406 24.5772 23.3896 24.0983 23.7659 23.7296H14.4848C14.8558 24.0931 15.1034 24.5639 15.1924 25.0756C15.2815 25.5873 15.2076 26.1141 14.9812 26.5815C14.7547 27.049 14.3872 27.4335 13.9305 27.6808C13.4737 27.9282 12.9508 28.0258 12.4356 27.9599C11.9204 27.8941 11.4389 27.6681 11.059 27.3138C10.6792 26.9596 10.4202 26.495 10.3186 25.9856C10.217 25.4762 10.278 24.9478 10.4929 24.4749C10.7078 24.002 11.0658 23.6086 11.5163 23.3502L8.40624 8.1459H5.31252C5.03073 8.1459 4.76047 8.03395 4.56121 7.83469C4.36194 7.63543 4.25 7.36517 4.25 7.08337V6.37502C4.25 6.09323 4.36194 5.82297 4.56121 5.62371C4.76047 5.42444 5.03073 5.3125 5.31252 5.3125H9.85172C10.0962 5.31294 10.3331 5.39769 10.5224 5.55246C10.7117 5.70722 10.8418 5.92254 10.8908 6.16208L13.9066 20.8962Z" fill="#424242"/>
</svg>
