<svg width="34" height="34" viewBox="0 0 34 34" fill="none" xmlns="http://www.w3.org/2000/svg">
<path d="M26.2075 27.9793H20.5409C20.353 27.9793 20.1728 27.9047 20.04 27.7719C19.9071 27.639 19.8325 27.4589 19.8325 27.271V21.6043C19.8325 21.4165 19.7579 21.2363 19.6251 21.1035C19.4922 20.9706 19.312 20.896 19.1242 20.896H14.8742C14.6863 20.896 14.5062 20.9706 14.3733 21.1035C14.2405 21.2363 14.1659 21.4165 14.1659 21.6043V27.271C14.1659 27.4589 14.0912 27.639 13.9584 27.7719C13.8255 27.9047 13.6454 27.9793 13.4575 27.9793H7.79085C7.60299 27.9793 7.42282 27.9047 7.28999 27.7719C7.15715 27.639 7.08252 27.4589 7.08252 27.271V19.0809C7.16132 19.0273 7.25296 18.9972 7.32468 18.9326L16.9992 10.4038L26.683 18.9437C26.7512 19.0047 26.8406 19.0322 26.9159 19.0853V27.271C26.9159 27.4589 26.8412 27.639 26.7084 27.7719C26.5756 27.9047 26.3954 27.9793 26.2075 27.9793Z" fill="white"/>
<path d="M27.6212 17.8801L17.469 8.92549C17.3396 8.81132 17.173 8.74832 17.0004 8.74832C16.8279 8.74832 16.6612 8.81132 16.5318 8.92549L6.37965 17.8806C6.23991 18.0061 6.05606 18.0709 5.86852 18.0609C5.68098 18.0508 5.50511 17.9667 5.37957 17.827L4.43129 16.7738C4.30581 16.6341 4.24097 16.4502 4.25101 16.2627C4.26106 16.0752 4.34517 15.8993 4.48486 15.7737L15.8182 5.76853C16.1425 5.47533 16.5641 5.31299 17.0013 5.31299C17.4385 5.31299 17.8602 5.47533 18.1845 5.76853L22.6664 9.72502V7.43754C22.6664 7.24968 22.7411 7.06951 22.8739 6.93668C23.0067 6.80384 23.1869 6.72921 23.3748 6.72921H26.2081C26.396 6.72921 26.5761 6.80384 26.709 6.93668C26.8418 7.06951 26.9164 7.24968 26.9164 7.43754V13.4774L29.5147 15.772C29.6544 15.8974 29.7386 16.0733 29.7488 16.2608C29.7589 16.4484 29.6941 16.6323 29.5687 16.772L28.6213 17.8266C28.4958 17.9663 28.3199 18.0504 28.1324 18.0604C27.9448 18.0705 27.761 18.0056 27.6212 17.8801Z" fill="#424242"/>
</svg>
