<svg width="27" height="17" viewBox="0 0 27 17" fill="none" xmlns="http://www.w3.org/2000/svg">
<g clip-path="url(#clip0_1506_1354)">
<path d="M24.1685 0H2.3773C2.28654 0 2.19562 0 2.10503 0.000529245C2.02845 0.00107453 1.95204 0.00192453 1.87564 0.00400943C1.70901 0.00851603 1.54095 0.0183472 1.3764 0.0479207C1.20922 0.0780075 1.05366 0.127083 0.901893 0.204353C0.752694 0.280227 0.616101 0.379469 0.497728 0.497891C0.379304 0.616314 0.280063 0.752683 0.204204 0.902042C0.126919 1.05381 0.0778112 1.20942 0.0479329 1.37673C0.0182006 1.54132 0.00830369 1.70935 0.00381313 1.87581C0.0017603 1.95221 0.000879829 2.02861 0.000381056 2.105C-0.000148189 2.19579 2.82264e-05 2.28651 2.82264e-05 2.37747V14.6171C2.82264e-05 14.7081 -0.000148189 14.7986 0.000381056 14.8896C0.000879829 14.966 0.0017603 15.0424 0.00381313 15.1188C0.00830369 15.2851 0.0182006 15.4531 0.0479329 15.6177C0.0778112 15.785 0.126919 15.9406 0.204204 16.0924C0.280063 16.2417 0.379304 16.3783 0.497728 16.4965C0.616101 16.6151 0.752694 16.7144 0.901893 16.79C1.05366 16.8675 1.20922 16.9166 1.3764 16.9467C1.54095 16.9761 1.70901 16.9861 1.87564 16.9906C1.95204 16.9923 2.02845 16.9933 2.10503 16.9937C2.19562 16.9944 2.28654 16.9944 2.3773 16.9944H24.1685C24.2591 16.9944 24.35 16.9944 24.4406 16.9937C24.517 16.9933 24.5934 16.9923 24.6702 16.9906C24.8365 16.9861 25.0045 16.9761 25.1694 16.9467C25.3364 16.9166 25.492 16.8675 25.6438 16.79C25.7931 16.7144 25.9293 16.6151 26.0479 16.4965C26.1662 16.3783 26.2654 16.2417 26.3415 16.0924C26.4189 15.9406 26.468 15.785 26.4977 15.6177C26.5275 15.4531 26.5371 15.2851 26.5416 15.1188C26.5437 15.0424 26.5447 14.966 26.5451 14.8896C26.5458 14.7986 26.5458 14.7081 26.5458 14.6171V2.37747C26.5458 2.28651 26.5458 2.19579 26.5451 2.105C26.5447 2.02861 26.5437 1.95221 26.5416 1.87581C26.5371 1.70935 26.5275 1.54132 26.4977 1.37673C26.468 1.20942 26.4189 1.05381 26.3415 0.902042C26.2654 0.752683 26.1662 0.616314 26.0479 0.497891C25.9293 0.379469 25.7931 0.280227 25.6438 0.204353C25.492 0.127083 25.3364 0.0780075 25.1694 0.0479207C25.0045 0.0183472 24.8365 0.00851603 24.6702 0.00400943C24.5934 0.00192453 24.517 0.00107453 24.4406 0.000529245C24.35 0 24.2591 0 24.1685 0Z" fill="black"/>
<path d="M24.1685 0.566406L24.4366 0.566919C24.5092 0.567433 24.5818 0.568219 24.6548 0.570207C24.7818 0.573639 24.9304 0.580519 25.0689 0.605346C25.1893 0.627029 25.2903 0.660003 25.3872 0.709335C25.4829 0.757945 25.5705 0.821647 25.647 0.898067C25.7239 0.975 25.7876 1.06279 25.8369 1.15951C25.8859 1.25566 25.9187 1.35615 25.9403 1.47743C25.965 1.61442 25.9719 1.76342 25.9754 1.89122C25.9773 1.96336 25.9783 2.0355 25.9786 2.10935C25.9793 2.19866 25.9793 2.28793 25.9793 2.37742V14.6171C25.9793 14.7066 25.9793 14.7957 25.9786 14.8869C25.9783 14.959 25.9773 15.0312 25.9753 15.1034C25.9719 15.231 25.965 15.3799 25.94 15.5186C25.9187 15.6382 25.886 15.7387 25.8366 15.8353C25.7875 15.9318 25.7238 16.0195 25.6474 16.0959C25.5704 16.1729 25.483 16.2364 25.3862 16.2855C25.2901 16.3346 25.1893 16.3675 25.07 16.389C24.9287 16.4142 24.7739 16.4211 24.6573 16.4242C24.584 16.4259 24.511 16.4269 24.4362 16.4272C24.3471 16.4279 24.2576 16.4279 24.1685 16.4279H2.37724C2.37606 16.4279 2.3749 16.4279 2.3737 16.4279C2.28559 16.4279 2.1973 16.4279 2.10758 16.4272C2.03444 16.4269 1.96145 16.4259 1.89088 16.4243C1.77163 16.4211 1.61672 16.4142 1.47656 16.3891C1.35633 16.3675 1.25553 16.3346 1.15809 16.2848C1.0622 16.2362 0.974903 16.1728 0.897906 16.0956C0.821502 16.0194 0.758009 15.9319 0.708917 15.8353C0.659778 15.7388 0.626901 15.638 0.605283 15.5169C0.580295 15.3786 0.573431 15.2303 0.57 15.1035C0.568042 15.031 0.567224 14.9584 0.566759 14.8863L0.566406 14.6733L0.566422 14.6171V2.37742L0.566406 2.32119L0.566743 2.10868C0.567224 2.03611 0.568042 1.96355 0.57 1.89104C0.573431 1.76417 0.580295 1.61579 0.60549 1.47629C0.626917 1.35635 0.659778 1.25553 0.709174 1.15852C0.757881 1.06263 0.821486 0.975096 0.898293 0.898307C0.974792 0.821775 1.06237 0.758153 1.15887 0.709078C1.25527 0.659986 1.35626 0.627029 1.4765 0.605394C1.61503 0.580503 1.76372 0.573639 1.89106 0.570191C1.96364 0.568218 2.03623 0.567433 2.10827 0.566935L2.37724 0.566406H24.1685Z" fill="white"/>
<path d="M7.24679 5.71601C7.47408 5.43171 7.62832 5.04999 7.58764 4.65991C7.25492 4.67646 6.84889 4.87942 6.61382 5.16394C6.40275 5.40759 6.21594 5.80529 6.26464 6.17902C6.63814 6.21142 7.0113 5.99233 7.24679 5.71601Z" fill="black"/>
<path d="M7.58346 6.25192C7.04105 6.21961 6.57986 6.55977 6.32083 6.55977C6.06166 6.55977 5.665 6.2682 5.23598 6.27606C4.67758 6.28426 4.15946 6.59998 3.87609 7.10213C3.29327 8.10667 3.72229 9.59675 4.28906 10.4149C4.56429 10.8197 4.896 11.2653 5.33307 11.2493C5.74603 11.2331 5.9079 10.9819 6.40987 10.9819C6.91147 10.9819 7.05728 11.2493 7.49442 11.2412C7.94775 11.2331 8.23117 10.8363 8.5064 10.4311C8.82215 9.96969 8.9514 9.52417 8.95953 9.49971C8.9514 9.49161 8.08538 9.15938 8.07735 8.16319C8.06918 7.32907 8.75727 6.93231 8.78966 6.90771C8.40108 6.333 7.79395 6.2682 7.58346 6.25192Z" fill="black"/>
<path d="M12.3063 5.12305C13.4852 5.12305 14.3061 5.93569 14.3061 7.11884C14.3061 8.30622 13.4683 9.12309 12.2767 9.12309H10.9714V11.1989H10.0283V5.12305H12.3063V5.12305ZM10.9714 8.33148H12.0535C12.8746 8.33148 13.3419 7.88942 13.3419 7.12307C13.3419 6.3568 12.8746 5.91888 12.0577 5.91888H10.9714V8.33148Z" fill="black"/>
<path d="M14.5525 9.94004C14.5525 9.16524 15.1462 8.68947 16.1989 8.63051L17.4114 8.55896V8.21794C17.4114 7.72528 17.0788 7.43055 16.5231 7.43055C15.9967 7.43055 15.6682 7.68313 15.5883 8.07897H14.7294C14.7799 7.27892 15.4619 6.68945 16.5567 6.68945C17.6304 6.68945 18.3167 7.25788 18.3167 8.1463V11.199H17.4451V10.4705H17.4241C17.1673 10.9632 16.6072 11.2747 16.0262 11.2747C15.1588 11.2747 14.5525 10.7358 14.5525 9.94004ZM17.4114 9.54005V9.19058L16.3209 9.25791C15.7777 9.29583 15.4704 9.53582 15.4704 9.91478C15.4704 10.3021 15.7904 10.5548 16.2788 10.5548C16.9146 10.5548 17.4114 10.1168 17.4114 9.54005Z" fill="black"/>
<path d="M19.1396 12.8283V12.0914C19.2068 12.1083 19.3584 12.1083 19.4342 12.1083C19.8552 12.1083 20.0827 11.9314 20.2215 11.4767C20.2215 11.4683 20.3016 11.2072 20.3016 11.203L18.7017 6.76929H19.6868L20.8069 10.3736H20.8237L21.9438 6.76929H22.9038L21.2447 11.4303C20.8659 12.5041 20.428 12.8493 19.5101 12.8493C19.4342 12.8493 19.2068 12.8409 19.1396 12.8283Z" fill="black"/>
</g>
<defs>
<clipPath id="clip0_1506_1354">
<rect width="26.6226" height="17" fill="white"/>
</clipPath>
</defs>
</svg>
