<svg width="18" height="14" viewBox="0 0 18 14" fill="none" xmlns="http://www.w3.org/2000/svg">
<path d="M0.245129 7.59175L5.60163 12.9482C5.92845 13.2751 6.45847 13.2751 6.78529 12.9482C7.11217 12.6214 7.11217 12.0915 6.78529 11.7646L2.85756 7.83687L17.163 7.83687C17.6252 7.83687 18 7.46212 18 6.99992C18 6.53779 17.6252 6.16297 17.163 6.16297L2.85756 6.16297L6.78515 2.23525C7.11203 1.90836 7.11203 1.37847 6.78515 1.05159C6.62178 0.888285 6.40752 0.806465 6.19333 0.806465C5.97913 0.806465 5.76494 0.888285 5.6015 1.05159L0.245129 6.40809C-0.0817525 6.73497 -0.0817525 7.26487 0.245129 7.59175Z" fill="#7E8389"/>
</svg>
