<svg width="18" height="16" viewBox="0 0 18 16" fill="none" xmlns="http://www.w3.org/2000/svg">
<path d="M15.3433 1.50933C15.16 0.968497 14.6467 0.583496 14.0417 0.583496H3.95834C3.35334 0.583496 2.84917 0.968497 2.65667 1.50933L0.850833 6.70684C0.786667 6.89934 0.75 7.101 0.75 7.31184V13.8752C0.75 14.636 1.36417 15.2502 2.125 15.2502C2.88584 15.2502 3.5 14.636 3.5 13.8752C3.5 13.622 3.70521 13.4168 3.95834 13.4168H14.0417C14.2948 13.4168 14.5 13.622 14.5 13.8752C14.5 14.6268 15.1142 15.2502 15.875 15.2502C16.6267 15.2502 17.25 14.636 17.25 13.8752V7.31184C17.25 7.11017 17.2133 6.89934 17.1492 6.70684L15.3433 1.50933ZM3.95834 10.6668C3.1975 10.6668 2.58334 10.0527 2.58334 9.29184C2.58334 8.531 3.1975 7.91684 3.95834 7.91684C4.71917 7.91684 5.33334 8.531 5.33334 9.29184C5.33334 10.0527 4.71917 10.6668 3.95834 10.6668ZM14.0417 10.6668C13.2808 10.6668 12.6667 10.0527 12.6667 9.29184C12.6667 8.531 13.2808 7.91684 14.0417 7.91684C14.8025 7.91684 15.4167 8.531 15.4167 9.29184C15.4167 10.0527 14.8025 10.6668 14.0417 10.6668ZM6.27345 6.0835C4.45744 6.0835 3.17458 4.3051 3.7475 2.58183C3.87584 2.21516 4.22417 1.9585 4.61834 1.9585H13.3817C13.7758 1.9585 14.1242 2.21516 14.2525 2.58183C14.8254 4.3051 13.5426 6.0835 11.7266 6.0835H6.27345Z" fill="white"/>
</svg>
