<svg width="26" height="23" viewBox="0 0 26 23" fill="none" xmlns="http://www.w3.org/2000/svg">
<path d="M24.6871 3.14583H6.6374L6.25109 1.171C6.15352 0.672333 5.71647 0.3125 5.20833 0.3125H0.78125C0.487867 0.3125 0.25 0.550367 0.25 0.84375V1.90625C0.25 2.19963 0.487867 2.4375 0.78125 2.4375H4.33354L7.41453 18.1847C6.92586 18.6938 6.625 19.3845 6.625 20.1458C6.625 21.7106 7.89354 22.9792 9.45833 22.9792C11.0231 22.9792 12.2917 21.7106 12.2917 20.1458C12.2922 19.6484 12.1611 19.1596 11.9117 18.7292H18.3384C18.0889 19.1596 17.9578 19.6484 17.9584 20.1458C17.9584 21.7106 19.2269 22.9792 20.7917 22.9792C22.3565 22.9792 23.625 21.7106 23.625 20.1458C23.625 19.3429 23.2905 18.6187 22.754 18.1031L22.7998 17.8925C22.9438 17.2302 22.4393 16.6042 21.7616 16.6042H9.27062L8.85492 14.4792H22.6854C23.1852 14.4792 23.6174 14.1308 23.7236 13.6424L25.7253 4.43403C25.8693 3.77178 25.3648 3.14583 24.6871 3.14583ZM9.45833 21.2083C8.87245 21.2083 8.39583 20.7317 8.39583 20.1458C8.39583 19.56 8.87245 19.0833 9.45833 19.0833C10.0442 19.0833 10.5208 19.56 10.5208 20.1458C10.5208 20.7317 10.0442 21.2083 9.45833 21.2083ZM20.7917 21.2083C20.2058 21.2083 19.7292 20.7317 19.7292 20.1458C19.7292 19.56 20.2058 19.0833 20.7917 19.0833C21.3775 19.0833 21.8542 19.56 21.8542 20.1458C21.8542 20.7317 21.3775 21.2083 20.7917 21.2083ZM21.8293 12.3542H8.43922L7.0531 5.27083H23.369L21.8293 12.3542Z" fill="white"/>
</svg>
