<svg width="28" height="20" viewBox="0 0 28 20" fill="none" xmlns="http://www.w3.org/2000/svg">
<path fill-rule="evenodd" clip-rule="evenodd" d="M27.1321 4.13896C27.1923 4.13715 27.2535 4.14172 27.3146 4.15318C27.4366 4.17985 27.5474 4.23095 27.6425 4.30048C27.8553 4.45402 27.9956 4.70261 27.9997 4.98261C28.0012 5.04291 27.9966 5.10442 27.9853 5.16642L25.9589 15.2988C25.8732 15.6984 25.5307 15.9838 25.1169 15.9838H24.3779C24.4865 16.2726 24.546 16.5852 24.546 16.9114C24.546 18.367 23.3615 19.5515 21.9059 19.5515C20.4503 19.5515 19.2658 18.367 19.2658 16.9114C19.2658 16.5852 19.3253 16.2726 19.434 15.9838H13.6747C13.7833 16.2726 13.8428 16.5852 13.8428 16.9114C13.8428 18.367 12.6583 19.5515 11.2027 19.5515C9.74707 19.5515 8.56258 18.367 8.56258 16.9114C8.56258 16.5852 8.62209 16.2726 8.73081 15.9838H7.99173C7.57787 15.9838 7.23537 15.6984 7.14974 15.2988L4.43255 1.71287H0.856252C0.385309 1.71287 -7.62939e-06 1.32755 -7.62939e-06 0.856609C-7.62939e-06 0.385667 0.385309 0.000350285 0.856252 0.000350285H5.10234C5.12262 -0.000220554 5.1428 -9.16111e-05 5.16282 0.000721835C5.43551 0.00872785 5.67727 0.145843 5.82873 0.352715C5.90004 0.448973 5.9524 0.561371 5.97952 0.685329L6.66879 4.13896H27.1321ZM26.0966 5.85148H7.01058L8.69101 14.2713H24.4176L26.0966 5.85148ZM11.2027 17.839C10.689 17.839 10.2751 17.4251 10.2751 16.9114C10.2751 16.3976 10.689 15.9838 11.2027 15.9838C11.7164 15.9838 12.1303 16.3976 12.1303 16.9114C12.1303 17.4251 11.7164 17.839 11.2027 17.839ZM21.9059 17.839C21.3921 17.839 20.9783 17.4251 20.9783 16.9114C20.9783 16.3976 21.3921 15.9838 21.9059 15.9838C22.4196 15.9838 22.8335 16.3976 22.8335 16.9114C22.8335 17.4251 22.4196 17.839 21.9059 17.839Z" fill="white"/>
</svg>
