<svg width="11" height="10" viewBox="0 0 11 10" fill="none" xmlns="http://www.w3.org/2000/svg">
<path d="M5.49976 9.69727C8.1652 9.69727 10.3337 7.52872 10.3337 4.86328C10.3337 2.19784 8.1652 0 5.49976 0C2.83431 0 0.665771 2.19784 0.665771 4.86328C0.665771 7.52872 2.83431 9.69727 5.49976 9.69727ZM5.50445 5.17399C4.77752 5.17399 4.18609 4.58256 4.18609 3.85563C4.18609 3.28526 4.5523 2.803 5.0603 2.61967V2.22656C5.0603 1.98372 5.25691 1.78711 5.49976 1.78711C5.74271 1.78711 5.93921 1.98372 5.93921 2.22656V2.61681C6.45202 2.79739 6.82281 3.28171 6.82281 3.85563C6.82281 4.09847 6.62631 4.29508 6.38335 4.29508C6.14051 4.29508 5.9439 4.09847 5.9439 3.85563C5.9439 3.61313 5.74695 3.41618 5.50445 3.41618C5.26206 3.41618 5.06499 3.61313 5.06499 3.85563C5.06499 4.09813 5.26206 4.29508 5.50445 4.29508C6.23149 4.29508 6.82281 4.8864 6.82281 5.61344C6.82281 6.18736 6.45202 6.67156 5.93921 6.85226V7.5C5.93921 7.74284 5.74271 7.93945 5.49976 7.93945C5.25691 7.93945 5.0603 7.74284 5.0603 7.5V6.84929C4.5523 6.66607 4.18609 6.18382 4.18609 5.61344C4.18609 5.37048 4.3827 5.17399 4.62554 5.17399C4.8685 5.17399 5.06499 5.37048 5.06499 5.61344C5.06499 5.85594 5.26206 6.05289 5.50445 6.05289C5.74695 6.05289 5.9439 5.85594 5.9439 5.61344C5.9439 5.37094 5.74695 5.17399 5.50445 5.17399Z" fill="#424242"/>
</svg>
