<svg width="15" height="16" viewBox="0 0 15 16" fill="none" xmlns="http://www.w3.org/2000/svg">
<path d="M7.94999 7.52552V0.433979C7.94999 0.19288 7.75711 0 7.51601 0C7.27491 0 7.08203 0.19288 7.08203 0.433979V7.52552C6.07584 7.72805 5.31396 8.61851 5.31396 9.68578C5.31396 10.753 6.07584 11.6435 7.08203 11.846V15.0028C7.08203 15.2439 7.27491 15.4368 7.51601 15.4368C7.75711 15.4368 7.94999 15.2439 7.94999 15.0028V11.846C8.95618 11.6435 9.71806 10.753 9.71806 9.68578C9.71806 8.62172 8.9594 7.72805 7.94999 7.52552ZM7.51601 11.0199C6.77985 11.0199 6.18193 10.4219 6.18193 9.68578C6.18193 8.94962 6.77985 8.35169 7.51601 8.35169C8.25217 8.35169 8.8501 8.94962 8.8501 9.68578C8.8501 10.4219 8.25217 11.0199 7.51601 11.0199Z" fill="#7E8389"/>
<path d="M2.63602 3.88653V0.433979C2.63602 0.19288 2.44314 0 2.20204 0C1.96094 0 1.76806 0.19288 1.76806 0.433979V3.88653C0.761875 4.08905 0 4.97951 0 6.04678C0 7.11405 0.761875 8.00451 1.76806 8.20703V15.0028C1.76806 15.2439 1.96094 15.4368 2.20204 15.4368C2.44314 15.4368 2.63602 15.2439 2.63602 15.0028V8.20382C3.64221 8.00129 4.40409 7.11083 4.40409 6.04356C4.40409 4.9763 3.64221 4.08905 2.63602 3.88653ZM2.20204 7.38086C1.46589 7.38086 0.867959 6.78294 0.867959 6.04678C0.867959 5.31062 1.46589 4.71269 2.20204 4.71269C2.9382 4.71269 3.53613 5.31062 3.53613 6.04678C3.53613 6.78294 2.93499 7.38086 2.20204 7.38086Z" fill="#7E8389"/>
<path d="M13.2317 3.88653V0.433979C13.2317 0.19288 13.0388 0 12.7977 0C12.5566 0 12.3638 0.19288 12.3638 0.433979V3.88653C11.3576 4.08905 10.5957 4.97951 10.5957 6.04678C10.5957 7.11405 11.3576 8.00451 12.3638 8.20703V15.006C12.3638 15.2471 12.5566 15.44 12.7977 15.44C13.0388 15.44 13.2317 15.2471 13.2317 15.006V8.20382C14.2379 8.00129 14.9998 7.11083 14.9998 6.04356C14.9998 4.9763 14.2411 4.08905 13.2317 3.88653ZM12.7977 7.38086C12.0616 7.38086 11.4637 6.78294 11.4637 6.04678C11.4637 5.31062 12.0616 4.71269 12.7977 4.71269C13.5339 4.71269 14.1318 5.31062 14.1318 6.04678C14.1318 6.78294 13.5339 7.38086 12.7977 7.38086Z" fill="#7E8389"/>
</svg>
