<svg width="15" height="15" viewBox="0 0 15 15" fill="none" xmlns="http://www.w3.org/2000/svg">
<path d="M7.49997 0C3.36447 0 0 3.36447 0 7.49997C0 11.6355 3.36447 14.9999 7.49997 14.9999C11.6355 14.9999 15 11.6355 15 7.49997C15 3.36447 11.6355 0 7.49997 0ZM7.32283 9.34798C7.13627 9.54831 6.93686 9.72648 6.61667 9.88248C6.29642 10.0385 5.8924 10.1165 5.40333 10.1165C4.78152 10.1165 4.25806 9.92326 3.86451 9.53664C3.4709 9.15007 3.25843 8.64817 3.25843 8.031V6.969C3.25843 6.35416 3.46363 5.85285 3.84212 5.4651C4.22055 5.07733 4.71587 4.88345 5.31211 4.88345C5.9316 4.88345 6.4101 5.03427 6.73966 5.33583C7.0692 5.63747 7.23948 6.04075 7.24646 6.5321L7.24148 6.55983H6.28079C6.26212 6.26666 6.17599 6.06922 6.02228 5.91202C5.86858 5.75483 5.6438 5.67283 5.34807 5.67283C5.03595 5.67283 4.79315 5.79155 4.60223 6.03238C4.41124 6.27322 4.32451 6.5815 4.32451 6.96075V8.02874C4.32451 8.41498 4.41472 8.72851 4.6127 8.96935C4.81063 9.21018 5.07297 9.33054 5.40833 9.33054C5.64587 9.33054 5.8437 9.30619 5.98814 9.25739C6.13251 9.20865 6.20347 9.14828 6.3234 9.07628V8.14563H5.37726V7.43935H7.32285V9.34798H7.32283ZM11.7337 5.73361H9.20178V7.14616H11.3739V7.90573H9.20178V10.0246H8.20234V4.97404H11.7337V5.73361Z" fill="#424242"/>
</svg>
