<svg width="13" height="13" viewBox="0 0 13 13" fill="none" xmlns="http://www.w3.org/2000/svg">
<path d="M9.45479 0.541748C7.58333 0.541748 6.5 2.16675 6.5 2.16675C6.5 2.16675 5.41667 0.541748 3.54521 0.541748C1.58708 0.541748 0 2.12883 0 4.08696C0 7.52166 4.01971 10.8069 5.84783 12.2401C5.84783 12.2401 6.14575 12.4584 6.5 12.4584C6.85425 12.4584 7.15217 12.2401 7.15217 12.2401C8.98029 10.8069 13 7.52166 13 4.08696C13 2.12883 11.4129 0.541748 9.45479 0.541748ZM6.12354 9.38608L3.08154 4.40275C2.91796 4.13516 3.11079 3.79175 3.42442 3.79175H3.99696C4.20442 3.79175 4.39454 3.90604 4.49258 4.08858L6.32125 7.50216C6.39763 7.64516 6.60292 7.64516 6.67929 7.50216L8.50796 4.08858C8.60546 3.90604 8.79613 3.79175 9.00304 3.79175H9.57558C9.88921 3.79175 10.082 4.13516 9.91846 4.40275L6.87646 9.38608C6.70475 9.66775 6.29525 9.66775 6.12354 9.38608Z" fill="#424242"/>
</svg>
