<svg width="26" height="23" viewBox="0 0 26 23" fill="none" xmlns="http://www.w3.org/2000/svg">
<path d="M25.4957 9.84964L22.9125 7.72685V3.50031C22.9125 3.40638 22.8752 3.3163 22.8087 3.24988C22.7423 3.18346 22.6522 3.14615 22.5583 3.14615H21.1416C21.0507 3.14734 20.9638 3.18344 20.8988 3.24698C20.8337 3.31051 20.7956 3.39662 20.7923 3.48747V5.98479L14.5887 0.888333C14.143 0.516593 13.581 0.312988 13.0007 0.312988C12.4203 0.312988 11.8584 0.516593 11.4127 0.888333L0.505675 9.84964C0.434337 9.90934 0.375457 9.98251 0.332399 10.065C0.289341 10.1474 0.262947 10.2376 0.254725 10.3302C0.246503 10.4229 0.256614 10.5163 0.28448 10.605C0.312346 10.6938 0.357422 10.7762 0.417134 10.8475L0.870467 11.392C0.991034 11.536 1.16382 11.6262 1.35085 11.6428C1.53788 11.6594 1.72385 11.601 1.86789 11.4806L3.08401 10.4823V13.0628H3.07028V22.2711C3.0718 22.4593 3.14752 22.6393 3.28099 22.7719C3.41446 22.9045 3.59488 22.9791 3.78305 22.9795H22.209C22.3969 22.9795 22.577 22.9049 22.7099 22.772C22.8427 22.6392 22.9173 22.459 22.9173 22.2711V10.4823L24.1348 11.4823C24.2788 11.6028 24.4648 11.6611 24.6518 11.6445C24.8389 11.6279 25.0116 11.5377 25.1322 11.3938L25.5864 10.8493C25.6463 10.7778 25.6914 10.6951 25.7193 10.6061C25.7471 10.5171 25.7571 10.4235 25.7487 10.3306C25.7402 10.2377 25.7136 10.1474 25.6701 10.0649C25.6267 9.98235 25.5674 9.9092 25.4957 9.84964ZM20.7923 10.2295H20.783V20.8545H15.834V14.4795C15.834 14.1038 15.6848 13.7434 15.4191 13.4777C15.1534 13.2121 14.7931 13.0628 14.4173 13.0628H11.584C11.2083 13.0628 10.848 13.2121 10.5823 13.4777C10.3166 13.7434 10.1673 14.1038 10.1673 14.4795V20.8545H5.19529V8.9226L5.20901 8.91154V8.73445L13.0007 2.33378L20.7923 8.73622V10.2295Z" fill="white"/>
</svg>
