<svg width="20" height="20" viewBox="0 0 20 20" fill="none" xmlns="http://www.w3.org/2000/svg">
<path fill-rule="evenodd" clip-rule="evenodd" d="M9.4267 1.40254C9.7709 1.16161 10.2291 1.16158 10.5734 1.40246L14 3.8V0.8C14 0.35817 14.3582 0 14.8 0H16.2C16.6418 0 17 0.35817 17 0.8V5.90327L19.5721 7.69762C19.8402 7.88465 20 8.1909 20 8.5178V9.0397C20 9.4442 19.5447 9.6813 19.2133 9.4493L17 7.9V19.2C17 19.6418 16.6418 20 16.2 20H12.6C12.1582 20 11.8 19.6418 11.8 19.2V12C11.8 11.5582 11.4418 11.2 11 11.2H9C8.5582 11.2 8.2 11.5582 8.2 12V19.2C8.2 19.6418 7.84183 20 7.4 20H3.8C3.35817 20 3 19.6418 3 19.2V7.9L0.78673 9.4493C0.45534 9.6813 0 9.4442 0 9.0397V8.5207C0 8.1944 0.15924 7.88855 0.42661 7.70143L9.4267 1.40254Z" fill="#424242"/>
</svg>
