<svg width="24" height="28" viewBox="0 0 24 28" fill="none" xmlns="http://www.w3.org/2000/svg">
<path d="M4.58408 3.1442C8.69716 0.163295 14.1228 -0.881891 17.4147 3.63777C20.4504 7.80569 16.8299 12.8786 16.8985 15.1299C16.9425 16.8096 18.3469 18.1969 16.2259 19.734C14.8442 20.7354 13.3528 20.1035 12.6058 19.0778C9.82569 15.2608 14.8186 10.3224 12.5295 7.17945C11.2694 5.4495 9.36821 5.26024 7.43907 6.65836C3.32599 9.63927 8.01298 12.7052 4.89783 14.9629C3.77326 15.7779 2.31759 15.8043 1.38429 14.5229C-0.906198 11.3797 0.662857 5.98607 4.58408 3.1442ZM17.8704 21.7215C19.3143 20.6752 21.3684 20.9963 22.4207 22.4411C23.473 23.8859 23.1467 25.9322 21.7006 26.9802C20.2545 28.0283 18.203 27.7075 17.1496 26.2612C16.0979 24.8172 16.4243 22.7696 17.8704 21.7215Z" fill="#D3D3D3"/>
</svg>
