<svg width="20" height="21" viewBox="0 0 20 21" fill="none" xmlns="http://www.w3.org/2000/svg">
<path d="M15.5459 2.21872C18.5545 4.5637 20.4322 8.25679 17.8389 11.5682C15.4475 14.622 11.0256 13.0666 9.40931 13.5838C8.20187 13.9645 7.48725 15.2648 5.93584 14.0556C4.92523 13.2678 5.0748 12.0617 5.66333 11.3102C7.85341 8.51362 12.4614 11.086 14.2648 8.78326C15.2574 7.51577 15.0017 6.10624 13.5906 5.00638C10.5821 2.6614 9.32982 6.67627 7.05124 4.90024C6.22866 4.25909 5.90885 3.21547 6.64408 2.27663C8.44733 -0.0271242 12.6777 -0.0168796 15.5459 2.21872ZM4.83614 15.6537C5.89223 16.4769 6.08393 18.024 5.25495 19.0825C4.42597 20.1411 2.87656 20.3311 1.81881 19.5066C0.761055 18.6822 0.569591 17.137 1.39944 16.0774C2.22799 15.0194 3.77838 14.8292 4.83614 15.6537Z" fill="#D3D3D3"/>
</svg>
