<svg width="24" height="15" viewBox="0 0 24 15" fill="none" xmlns="http://www.w3.org/2000/svg">
<path d="M22.0032 2.99904C20.8985 2.99904 20.0029 3.89462 20.0029 4.99935C20.0033 5.20905 20.0371 5.41734 20.1029 5.61645L18.4806 6.64762C17.4125 7.32815 16.0043 7.1026 15.2022 6.12254L13.6119 4.17727C13.865 3.83658 14.0018 3.42351 14.002 2.99909C14.002 1.89436 13.1064 0.998779 12.0017 0.998779C10.8969 0.998779 10.0014 1.89436 10.0014 2.99909C10.0015 3.42351 10.1383 3.83658 10.3914 4.17727L8.80118 6.12254C7.99917 7.10204 6.59159 7.32754 5.52372 6.64762L3.90057 5.61645C3.96644 5.41734 4.0002 5.20905 4.00057 4.99935C4.00076 3.89462 3.10536 2.9989 2.00059 2.99871C0.895913 2.99852 0.000187561 3.89397 3.3278e-08 4.99869C-0.000187494 6.03572 0.79221 6.90092 1.82525 6.99164L3.00743 14.0827C3.04751 14.3238 3.25604 14.5006 3.50048 14.5007H20.503C20.7474 14.5006 20.956 14.3238 20.996 14.0827L22.1782 6.99164C23.2785 6.89295 24.0905 5.92095 23.9918 4.82063C23.8995 3.79069 23.0373 3.00096 22.0032 2.99904Z" fill="#FFC107"/>
</svg>
