<svg width="41" height="60" viewBox="0 0 41 60" fill="none" xmlns="http://www.w3.org/2000/svg">
<path d="M35.1358 5.85927C31.2293 1.95268 26.5147 0 20.9931 0C15.4712 0 10.7571 1.95309 6.85036 5.85927C2.94375 9.76531 0.990234 14.4789 0.990234 19.9999C0.990234 22.8388 1.41991 25.1692 2.27912 26.9922L16.5391 57.2272C16.9299 58.0859 17.5357 58.763 18.356 59.2573C19.1765 59.7522 20.0554 60 20.9933 60C21.931 60 22.8103 59.7522 23.6306 59.2573C24.4511 58.763 25.0692 58.0859 25.486 57.2272L39.7061 26.9922C40.5657 25.1692 40.9956 22.8386 40.9956 19.9999C40.9963 14.4789 39.0432 9.76586 35.1358 5.85927ZM28.0641 27.0703C26.111 29.023 23.7541 29.9997 20.9931 29.9997C18.2321 29.9997 15.8752 29.023 13.9215 27.0703C11.9681 25.1169 10.9912 22.7604 10.9912 19.9998C10.9912 17.2395 11.9681 14.8825 13.9215 12.9297C15.8752 10.9766 18.2325 9.99982 20.9931 9.99982C23.7541 9.99982 26.111 10.9766 28.0641 12.9297C30.0173 14.8823 30.9942 17.2395 30.9942 19.9998C30.9942 22.7601 30.0175 25.1165 28.0641 27.0703Z" fill="white"/>
</svg>
