<svg width="11" height="15" viewBox="0 0 11 15" fill="none" xmlns="http://www.w3.org/2000/svg">
<path d="M9.03246 1.46482C8.05598 0.48817 6.8775 0 5.49731 0C4.11705 0 2.9387 0.488272 1.96216 1.46482C0.98565 2.44133 0.497345 3.61971 0.497345 4.99998C0.497345 5.70969 0.604748 6.2923 0.819518 6.74804L4.38398 14.3068C4.48167 14.5215 4.63309 14.6908 4.83815 14.8143C5.04324 14.9381 5.26294 15 5.49738 15C5.73175 15 5.95154 14.9381 6.1566 14.8143C6.36169 14.6908 6.51619 14.5215 6.62038 14.3068L10.1749 6.74804C10.3897 6.2923 10.4972 5.70966 10.4972 4.99998C10.4974 3.61971 10.0092 2.44146 9.03246 1.46482ZM7.2648 6.76757C6.77659 7.25574 6.18745 7.49993 5.49731 7.49993C4.80716 7.49993 4.21802 7.25574 3.72968 6.76757C3.24141 6.27923 2.99722 5.69009 2.99722 4.99994C2.99722 4.30986 3.24141 3.72062 3.72968 3.23241C4.21802 2.74414 4.80726 2.49995 5.49731 2.49995C6.18745 2.49995 6.77659 2.74414 7.2648 3.23241C7.75303 3.72058 7.99722 4.30986 7.99722 4.99994C7.99722 5.69002 7.75307 6.27913 7.2648 6.76757Z" fill="#424242"/>
</svg>
