<svg width="10" height="15" viewBox="0 0 10 15" fill="none" xmlns="http://www.w3.org/2000/svg">
<path d="M4.7747 0C7.37441 0 9.93208 1.19491 9.9278 4.05303C9.92386 6.68872 6.89606 7.70234 6.2447 8.65473C5.75572 9.36316 5.91719 10.3586 4.57659 10.3586C3.70331 10.3586 3.2778 9.64969 3.27877 9.00105C3.28238 6.58731 6.83671 6.04104 6.83969 4.05351C6.84132 2.95953 6.1128 2.31089 4.89347 2.31089C2.29375 2.31089 3.3049 4.98581 1.33595 4.98581C0.625149 4.98581 0.0156393 4.56008 0.0168515 3.74976C0.0193462 1.76175 2.29625 0 4.7747 0ZM4.65611 11.6745C5.56869 11.6745 6.32054 12.4236 6.31918 13.3373C6.31781 14.2509 5.56515 15 4.65113 15C3.73711 15 2.98621 14.2519 2.98758 13.3373C2.98894 12.4241 3.74208 11.6745 4.65611 11.6745Z" fill="#424242"/>
</svg>
