<svg width="11" height="9" viewBox="0 0 11 9" fill="none" xmlns="http://www.w3.org/2000/svg">
<path d="M9.83952 0.402293C9.14891 1.36965 8.22415 1.48167 7.22903 0.890904C7.16129 0.850745 6.86074 0.685159 6.7942 0.645615C5.19334 -0.304733 3.59436 0.0679526 2.52203 1.56964C2.06635 2.20834 3.12026 2.81374 3.57084 2.18248C4.12488 1.40661 4.82939 1.1821 5.59988 1.42785C5.20537 2.11265 4.86045 2.79329 4.37374 3.7603C3.88691 4.72732 2.81206 5.49956 1.77927 4.89558C1.03406 4.46001 0.362024 5.53059 1.105 5.96481C2.51499 6.78887 4.16824 6.28285 5.01223 5.21166C5.0415 5.22731 5.07243 5.24142 5.10638 5.25329C5.79585 5.49351 6.69964 6.13304 6.97504 6.35969C7.25034 6.58635 7.72336 7.741 8.00426 8.32115C8.34502 9.0251 9.44552 8.51238 9.10349 7.80545C8.78508 7.14722 8.25062 5.8335 7.83375 5.50113C7.49935 5.23456 6.85013 4.73845 6.2995 4.457C6.67203 3.73543 7.05991 3.02164 7.46823 2.32018C8.7698 2.71897 10.0069 2.24921 10.888 1.01498C11.3441 0.376371 10.2904 -0.229027 9.83952 0.402293Z" fill="#424242"/>
</svg>
