<svg width="15" height="15" viewBox="0 0 15 15" fill="none" xmlns="http://www.w3.org/2000/svg">
<path d="M14.502 13.6582L11.0508 10.207C11.9062 9.16406 12.4219 7.82812 12.4219 6.37207C12.4219 3.03223 9.71191 0.322266 6.37207 0.322266C3.0293 0.322266 0.322266 3.03223 0.322266 6.37207C0.322266 9.71191 3.0293 12.4219 6.37207 12.4219C7.82812 12.4219 9.16113 11.9092 10.2041 11.0537L13.6553 14.502C13.8896 14.7363 14.2676 14.7363 14.502 14.502C14.7363 14.2705 14.7363 13.8896 14.502 13.6582ZM6.37207 11.2178C3.69727 11.2178 1.52344 9.04395 1.52344 6.37207C1.52344 3.7002 3.69727 1.52344 6.37207 1.52344C9.04395 1.52344 11.2207 3.7002 11.2207 6.37207C11.2207 9.04395 9.04395 11.2178 6.37207 11.2178Z" fill="#7E8389"/>
</svg>
