<svg width="15" height="15" viewBox="0 0 15 15" fill="none" xmlns="http://www.w3.org/2000/svg">
<path d="M14.6745 6.51264C14.9697 6.2249 15.0739 5.8026 14.9466 5.41003C14.8189 5.01746 14.4865 4.73723 14.078 4.67776L10.4461 4.15003C10.2914 4.1275 10.1577 4.03049 10.0886 3.89022L8.4649 0.599512C8.28258 0.229773 7.91254 0 7.50015 0C7.08806 0 6.71802 0.229773 6.5357 0.599512L4.91167 3.89052C4.84259 4.03079 4.70863 4.12781 4.55395 4.15033L0.922033 4.67806C0.513848 4.73723 0.181053 5.01776 0.0534012 5.41033C-0.0739501 5.8029 0.0302737 6.2252 0.325525 6.51294L2.95335 9.07438C3.06538 9.18371 3.11674 9.3411 3.09031 9.49488L2.47037 13.1118C2.41541 13.4302 2.49891 13.7398 2.70495 13.984C3.02513 14.3646 3.5841 14.4805 4.03103 14.2456L7.27909 12.5378C7.41485 12.4666 7.58575 12.4672 7.72121 12.5378L10.9696 14.2456C11.1276 14.3288 11.2961 14.3709 11.47 14.3709C11.7874 14.3709 12.0884 14.2297 12.2953 13.984C12.5017 13.7398 12.5849 13.4296 12.5299 13.1118L11.9097 9.49488C11.8833 9.3408 11.9346 9.18371 12.0467 9.07438L14.6745 6.51264Z" fill="#424242"/>
</svg>
