<svg width="75" height="75" viewBox="0 0 75 75" fill="none" xmlns="http://www.w3.org/2000/svg">
<path d="M37.5 0C16.8226 0 0 16.8222 0 37.5C0 58.1778 16.8226 75.0004 37.5 75.0004C58.1774 75.0004 75 58.1778 75 37.5C75 16.8222 58.1778 0 37.5 0ZM59.0332 31.1659L35.4738 54.7253C34.4721 55.727 33.1405 56.2784 31.7239 56.2784C30.3074 56.2784 28.9758 55.727 27.9741 54.7253L15.9668 42.7181C14.9651 41.7163 14.4134 40.3847 14.4134 38.9682C14.4134 37.5513 14.9651 36.2197 15.9668 35.2179C16.9682 34.2162 18.2998 33.6644 19.7167 33.6644C21.1332 33.6644 22.4653 34.2162 23.4666 35.2183L31.7235 43.4749L51.5326 23.6658C52.5344 22.664 53.866 22.1127 55.2825 22.1127C56.699 22.1127 58.0306 22.664 59.0324 23.6658C61.1008 25.7342 61.1008 29.0983 59.0332 31.1659Z" fill="#1EE76E"/>
</svg>
