<svg width="10" height="15" viewBox="0 0 10 15" fill="none" xmlns="http://www.w3.org/2000/svg">
<path d="M9.32275 5.77598C9.29537 5.72766 9.25566 5.68747 9.20768 5.65951C9.1597 5.63155 9.10516 5.61681 9.04962 5.61681H4.93703L5.62652 0.348694C5.63392 0.278188 5.61737 0.207244 5.57955 0.147285C5.54173 0.0873252 5.48483 0.041839 5.41801 0.0181498C5.35119 -0.00553949 5.27835 -0.00605323 5.2112 0.0166913C5.14406 0.0394357 5.08652 0.0841149 5.04785 0.143535L0.0465029 8.90571C0.0172565 8.95328 0.00122725 9.00778 6.77085e-05 9.06361C-0.00109183 9.11944 0.0126603 9.17457 0.0399064 9.22331C0.0671525 9.27205 0.106906 9.31265 0.155069 9.3409C0.203231 9.36916 0.25806 9.38406 0.3139 9.38407H4.36504L3.81863 14.6601C3.81326 14.7304 3.83154 14.8004 3.87057 14.8591C3.9096 14.9178 3.96712 14.9617 4.034 14.9839C4.10088 15.0061 4.17326 15.0053 4.23963 14.9816C4.306 14.958 4.36255 14.9128 4.40028 14.8533L9.31898 6.09204C9.34751 6.04439 9.36288 5.99004 9.36354 5.93452C9.36421 5.87899 9.35013 5.82429 9.32275 5.77598Z" fill="white"/>
</svg>
