<svg width="13" height="15" viewBox="0 0 13 15" fill="none" xmlns="http://www.w3.org/2000/svg">
<path d="M12.0605 7.19518C12.0605 7.19518 9.10867 6.81428 7.43751 7.92768V6.91003C8.52738 6.62857 9.31251 5.81717 9.31251 4.32691C9.31248 2.16344 6.5 0 6.5 0C6.5 0 3.68749 2.16344 3.68749 4.32691C3.68749 5.81717 4.47262 6.62854 5.56249 6.91003V7.92768C3.8913 6.81428 0.939545 7.19518 0.939545 7.19518C0.939545 7.19518 0.48058 10.7137 2.0104 12.2435C3.21262 13.4457 4.51362 13.3067 5.56249 12.4714V15H7.43748V12.4714C8.48632 13.3067 9.78735 13.4457 10.9896 12.2435C12.5194 10.7137 12.0605 7.19518 12.0605 7.19518Z" fill="#424242"/>
</svg>
