<svg width="15" height="21" viewBox="0 0 15 21" fill="none" xmlns="http://www.w3.org/2000/svg">
<path d="M7.43808 0C10.9862 0 14.4794 1.63002 14.4794 5.52888C14.4794 9.12431 10.3491 10.507 9.46203 11.8062C8.7961 12.7726 9.01851 14.1305 7.18885 14.1305C5.99698 14.1305 5.41478 13.1635 5.41478 12.2786C5.41478 8.98598 10.2647 8.24079 10.2647 5.52953C10.2647 4.0372 9.26905 3.15237 7.60489 3.15237C4.05676 3.15237 5.44226 6.80131 2.75499 6.80131C1.78489 6.80131 0.952149 6.22056 0.952149 5.11517C0.951494 2.40326 4.05545 0 7.43808 0ZM7.30005 15.9256C8.54556 15.9256 9.57323 16.9475 9.57323 18.1938C9.57323 19.4401 8.54752 20.462 7.30005 20.462C6.05258 20.462 5.02622 19.4414 5.02622 18.1938C5.02622 16.9481 6.05258 15.9256 7.30005 15.9256Z" fill="#D3D3D3"/>
</svg>
