<svg width="15" height="15" viewBox="0 0 15 15" fill="none" xmlns="http://www.w3.org/2000/svg">
<path d="M7.49886 10.3844C8.29224 10.3844 8.97119 10.1019 9.53607 9.53725C10.1009 8.97259 10.3833 8.29329 10.3833 7.49998V2.88469C10.3833 2.09138 10.1011 1.41237 9.53607 0.847427C8.97119 0.282613 8.29224 0 7.49886 0C6.70558 0 6.02653 0.282613 5.46162 0.847427C4.89668 1.41227 4.61426 2.09138 4.61426 2.88469V7.49998C4.61426 8.29326 4.89681 8.97259 5.46162 9.53725C6.02644 10.1019 6.70558 10.3844 7.49886 10.3844Z" fill="#7E8389"/>
<path d="M12.5203 5.93914C12.4065 5.82494 12.271 5.76782 12.1147 5.76782C11.9586 5.76782 11.8234 5.82494 11.7091 5.93914C11.595 6.05331 11.5379 6.18851 11.5379 6.3447V7.49862C11.5379 8.61045 11.1427 9.56141 10.3524 10.3517C9.56239 11.1419 8.61131 11.5371 7.49945 11.5371C6.38763 11.5371 5.43664 11.1419 4.64633 10.3517C3.85612 9.56163 3.46104 8.61048 3.46104 7.49862V6.3447C3.46104 6.18851 3.40392 6.05331 3.28978 5.93914C3.17558 5.82494 3.04051 5.76782 2.88416 5.76782C2.72781 5.76782 2.59258 5.82494 2.47845 5.93914C2.36421 6.05331 2.30713 6.18851 2.30713 6.3447V7.49862C2.30713 8.82676 2.75042 9.98216 3.63674 10.9646C4.5231 11.9471 5.61835 12.5105 6.92251 12.6546V13.8447H4.61485C4.4586 13.8447 4.3234 13.9018 4.20923 14.016C4.09503 14.1302 4.03791 14.2654 4.03791 14.4217C4.03791 14.5777 4.09503 14.7132 4.20923 14.8273C4.3234 14.9414 4.4586 14.9987 4.61485 14.9987H10.3839C10.5401 14.9987 10.6755 14.9414 10.7895 14.8273C10.9038 14.7132 10.961 14.5777 10.961 14.4217C10.961 14.2654 10.9038 14.1302 10.7895 14.016C10.6755 13.9018 10.5402 13.8447 10.3839 13.8447H8.07652V12.6546C9.38046 12.5105 10.4756 11.9471 11.3621 10.9646C12.2485 9.98216 12.6919 8.82676 12.6919 7.49862V6.3447C12.6919 6.18854 12.6347 6.05344 12.5203 5.93914Z" fill="#7E8389"/>
</svg>
