<svg width="12" height="12" viewBox="0 0 12 12" fill="none" xmlns="http://www.w3.org/2000/svg">
<path d="M6 0C2.69171 0 0 2.69171 0 6C0 9.30829 2.69171 12 6 12C9.30829 12 12 9.30829 12 6C12 2.69171 9.30829 0 6 0ZM6 0.923077C8.80889 0.923077 11.0769 3.19111 11.0769 6C11.0769 8.80889 8.80889 11.0769 6 11.0769C3.19111 11.0769 0.923077 8.80889 0.923077 6C0.923077 3.19111 3.19111 0.923077 6 0.923077ZM4.25481 3.59135L3.59135 4.25481L5.33654 6L3.59135 7.74519L4.25481 8.40865L6 6.66346L7.74519 8.40865L8.40865 7.74519L6.66346 6L8.40865 4.25481L7.74519 3.59135L6 5.33654L4.25481 3.59135Z" fill="#E92F48"/>
</svg>
